<mxfile host="app.diagrams.net" modified="2021-12-13T06:12:08.105Z" agent="5.0 (X11; Linux x86_64) AppleWebKit/537.36 (KHTML, like Gecko) Chrome/96.0.4664.45 Safari/537.36" etag="duKyR3gAafYMXWuqQcdN" version="15.9.4" type="github">
  <diagram id="dOkj7L5cDGJygwl93ysE" name="Page-1">
    <mxGraphModel dx="1422" dy="755" grid="1" gridSize="10" guides="1" tooltips="1" connect="1" arrows="1" fold="1" page="1" pageScale="1" pageWidth="827" pageHeight="1169" math="0" shadow="0">
      <root>
        <mxCell id="0" />
        <mxCell id="1" parent="0" />
        <mxCell id="OCNFR5dDiZtA7tL308bK-3" value="" style="edgeStyle=orthogonalEdgeStyle;rounded=0;orthogonalLoop=1;jettySize=auto;html=1;" edge="1" parent="1" source="OCNFR5dDiZtA7tL308bK-1" target="OCNFR5dDiZtA7tL308bK-2">
          <mxGeometry relative="1" as="geometry" />
        </mxCell>
        <mxCell id="OCNFR5dDiZtA7tL308bK-1" value="按时" style="rounded=0;whiteSpace=wrap;html=1;fillColor=#B3FF66;shadow=0;" vertex="1" parent="1">
          <mxGeometry x="200" y="240" width="100" height="50" as="geometry" />
        </mxCell>
        <mxCell id="OCNFR5dDiZtA7tL308bK-2" value="ad" style="whiteSpace=wrap;html=1;rounded=0;" vertex="1" parent="1">
          <mxGeometry x="340" y="235" width="120" height="60" as="geometry" />
        </mxCell>
      </root>
    </mxGraphModel>
  </diagram>
</mxfile>
